HIERARCHY
ROOT Hips
{
  OFFSET -35.4901 99.2528 17.4586
  CHANNELS 6 Xposition Yposition Zposition Zrotation Xrotation Yrotation
  JOINT LeftUpLeg
  {
    OFFSET 8.64259 1.95398 -2.38835
    CHANNELS 3 Zrotation Xrotation Yrotation
    JOINT LeftLeg
    {
      OFFSET 43.7702 0 0
      CHANNELS 3 Zrotation Xrotation Yrotation
      JOINT LeftFoot
      {
        OFFSET 40.6238 0 0
        CHANNELS 3 Zrotation Xrotation Yrotation
        JOINT LeftToeBase
        {
          OFFSET 12.7242 0 0
          CHANNELS 3 Zrotation Xrotation Yrotation
          End Site
          {
            OFFSET 0 0 0
          }
        }
      }
    }
  }
  JOINT RightUpLeg
  {
    OFFSET -8.2249 1.95398 -2.59336
    CHANNELS 3 Zrotation Xrotation Yrotation
    JOINT RightLeg
    {
      OFFSET 43.5653 0 0
      CHANNELS 3 Zrotation Xrotation Yrotation
      JOINT RightFoot
      {
        OFFSET 40.6238 0 0
        CHANNELS 3 Zrotation Xrotation Yrotation
        JOINT RightToeBase
        {
          OFFSET 12.7242 0 0
          CHANNELS 3 Zrotation Xrotation Yrotation
          End Site
          {
            OFFSET 0 0 0
          }
        }
      }
    }
  }
  JOINT Spine
  {
    OFFSET 0.165834 0.87714 6.61349
    CHANNELS 3 Zrotation Xrotation Yrotation
    JOINT Spine1
    {
      OFFSET 7.38963 1.71661e-005 0
      CHANNELS 3 Zrotation Xrotation Yrotation
      JOINT Spine2
      {
        OFFSET 11.9445 1.14441e-005 0
        CHANNELS 3 Zrotation Xrotation Yrotation
        JOINT Spine3
        {
          OFFSET 14.7254 4.19617e-005 0
          CHANNELS 3 Zrotation Xrotation Yrotation
          JOINT Spine4
          {
            OFFSET 10.9679 0 0
            CHANNELS 3 Zrotation Xrotation Yrotation
            JOINT RightShoulder
            {
              OFFSET 2.46616 -1.6653 3.69651
              CHANNELS 3 Zrotation Xrotation Yrotation
              JOINT RightArm
              {
                OFFSET 13.0012 0 0
                CHANNELS 3 Zrotation Xrotation Yrotation
                JOINT RightForeArm
                {
                  OFFSET 28.7848 1.52588e-005 0
                  CHANNELS 3 Zrotation Xrotation Yrotation
                  JOINT RightHand
                  {
                    OFFSET 26.5688 1.52588e-005 0
                    CHANNELS 3 Zrotation Xrotation Yrotation
                    End Site
                    {
                      OFFSET 0 0 0
                    }
                  }
                }
              }
            }
            JOINT LeftShoulder
            {
              OFFSET 2.38034 -1.29275 -3.7523
              CHANNELS 3 Zrotation Xrotation Yrotation
              JOINT LeftArm
              {
                OFFSET 16.3182 6.10351e-005 0
                CHANNELS 3 Zrotation Xrotation Yrotation
                JOINT LeftForeArm
                {
                  OFFSET 27.0901 0 0
                  CHANNELS 3 Zrotation Xrotation Yrotation
                  JOINT LeftHand
                  {
                    OFFSET 24.5451 1.52588e-005 0
                    CHANNELS 3 Zrotation Xrotation Yrotation
                    End Site
                    {
                      OFFSET 0 0 0
                    }
                  }
                }
              }
            }
            JOINT Neck
            {
              OFFSET 5.0226 -0.0266342 0
              CHANNELS 3 Zrotation Xrotation Yrotation
              JOINT Head
              {
                OFFSET 6.69364 2.86102e-005 0
                CHANNELS 3 Zrotation Xrotation Yrotation
                End Site
                {
                  OFFSET 0 0 0
                }
              }
            }
          }
        }
      }
    }
  }
}
MOTION
Frames:	12
Frame Time:	0.0416667
303.82 84.3314 317.307 -77.7285 6.54534 -89.4437 -143.08 2.18024 125.915 1.14354 5.03197 -23.5238 18.1122 -53.7266 26.4845 144.087 -22.1285 -32.5003 148.935 42.8541 99.2097 -63.0955 -1.80322 11.5923 97.9318 -16.168 -1.55695 9.37706 -2.82479 6.87257 -5.90728 14.8683 -94.3001 -3.62805 -13.1814 -9.58749 -15.2626 -13.5888 -8.99503 -37.841 -9.71549 -13.0882 -17.8284 -9.71547 -13.0882 77.4833 -60.757 -115.321 -16.2429 -7.69029 -24.5502 0.279572 -21.683 -26.5806 -23.5685 -0.314578 -5.88928 130.339 -66.793 -60.2365 34.9866 -55.3526 -83.1457 39.2639 2.6195 -76.8523 9.70047 -0.0775162 -4.24679 143.922 -17.8652 -17.238 -69.2495 25.4673 9.95532 
296.042 83.8916 311.606 -74.7382 20.5849 -91.5432 -171.312 5.64784 102.936 -54.9041 47.0469 13.6287 27.4719 -6.02798 -9.45196 69.023 17.0775 72.181 158.221 38.495 102.405 -62.8095 3.3966 7.23183 104.542 -16.682 6.97665 10.8592 -1.38579 4.34843 -4.46691 13.9354 -93.4889 -1.43037 -10.1377 -7.46204 -13.0807 -10.4553 -7.00744 -35.6347 -7.43854 -10.1549 -15.622 -7.43854 -10.1549 85.6904 -51.2783 -106.971 -4.32778 -6.39677 -29.3499 -21.7386 -48.2535 -36.9188 -17.3652 -13.8032 59.9613 103.832 -75.3119 -81.3242 44.5655 -36.4481 -64.3705 42.4272 1.31814 -76.4059 12.1017 0.0786611 -2.99244 138.221 -7.99507 -14.4218 -61.9922 23.8721 4.75451 
289.703 80.4399 307.152 -69.5577 36.3941 -95.5687 -171.871 14.7225 100.283 -77.0358 26.0593 7.27755 67.9306 3.58905 9.87446 -6.33819 13.507 -17.478 167.19 38.0885 103.658 -67.2663 3.51762 4.39523 116.137 -18.4783 13.8703 11.1277 -0.974628 3.59847 -2.19283 12.3734 -92.5924 1.95854 -5.37676 -5.17738 -9.71089 -5.59914 -4.93594 -32.207 -3.57605 -6.55015 -12.1944 -3.57605 -6.55015 93.8277 -41.0073 -96.4421 15.1932 2.07177 -39.4771 162.769 40.5195 -157.37 -24.4596 -36.4745 -171.073 41.9692 -80.5276 -138.334 41.8024 -5.74341 -49.1349 60.0896 -2.61104 -80.7636 9.23921 0.256473 -0.987431 124.642 6.64714 -7.01421 -54.3219 19.1212 -3.32988 
281.669 79.3075 300.763 -65.1571 44.0305 -101.379 -170.957 37.7798 94.1616 -98.7966 4.99571 5.87884 70.0662 5.13888 7.53803 30.5353 7.42385 -13.3191 172.564 31.4036 99.8939 -64.872 -1.69063 2.15946 122.169 -21.2892 13.5701 12.5075 -2.0919 5.64026 -0.456787 10.3197 -91.8378 6.18883 -1.68733 -3.55017 -5.4855 -1.84185 -3.47261 -27.9843 -0.543225 -3.89262 -7.97159 -0.543225 -3.89262 95.169 -26.2543 -97.4047 30.9677 2.6786 -44.2395 -3.06327 24.7919 -7.26421 -25.8321 23.7033 -40.9281 -60.0547 -65.1459 120.009 15.1885 28.8042 -18.9347 62.958 -8.08777 -81.0037 5.65483 -0.0493507 -4.26423 94.5288 15.5523 5.26514 -41.7733 10.3463 -7.46185 
272.528 79.5229 292.164 -61.2722 45.8651 -108.535 -173.665 60.3492 91.6536 -101.607 -3.32776 5.43195 78.1543 8.63051 3.58278 30.85 6.01488 -10.7367 174.372 20.7393 94.5762 -56.7472 -5.36674 0.376159 120.517 -23.2536 9.41653 20.5892 -1.7565 4.88436 1.21994 8.29467 -90.7184 10.2984 2.1021 -1.60821 -1.372 2.02929 -1.69918 -23.9177 2.48818 -0.90189 -3.90501 2.48821 -0.901882 92.726 -17.5341 -106.001 25.5235 -1.42255 -37.1376 16.6299 14.9477 0.0091964 -28.161 11.2706 -45.4305 -81.1966 -37.3842 91.0632 -35.0115 46.2278 39.6413 69.577 -21.8136 -79.0262 13.344 -0.012529 -3.80477 49.8431 4.94717 11.165 -17.145 -1.49987 -3.69801 
261.074 82.7147 279.606 -62.5194 36.9099 -111.059 178.749 73.3352 89.449 -85.0197 2.35739 4.29308 80.5985 9.88091 0.457252 31.4484 4.4388 -8.08908 172.244 5.64409 92.5394 -39.1289 -10.2079 0.0218319 91.2755 -15.145 -3.90041 40.3362 -3.25201 9.972 1.80325 7.52547 -89.9692 11.8614 3.60317 -0.263755 0.195381 3.58806 -0.422282 -22.3796 3.51583 0.832677 -2.36693 3.51584 0.832667 94.5518 -8.92924 -105.496 15.5458 -26.4431 -30.8217 40.6079 51.5915 -2.46703 -27.4306 14.99 -55.2027 -83.7494 -21.9653 83.8543 -55.5158 49.2907 63.4527 72.865 -29.5096 -75.8969 16.4843 -0.234655 -5.23487 33.5477 -6.03881 10.8466 -7.15004 -10.2843 -2.13664 
245.103 88.0337 265.785 -69.6375 37.2437 -115.884 -169.242 63.0729 73.6656 -59.5786 2.4634 -3.45834 81.2364 8.80849 -3.41702 26.9562 5.61662 -8.95632 168.904 -11.8055 81.0008 -24.2427 -22.3279 -5.77233 61.1305 -0.850712 -5.95289 29.7089 -3.09837 9.25393 2.68733 8.15862 -88.5644 10.4888 6.0106 2.28897 -1.16977 6.1055 2.02139 -23.7729 5.04466 3.9924 -3.76025 5.04469 3.9924 95.8718 -6.30792 -102.843 23.6402 -44.8802 -19.9271 62.6372 62.1625 -30.1862 -29.3026 15.8044 -55.4198 -84.3127 -18.4143 81.728 -44.4359 50.1143 53.8073 72.5781 -30.9304 -78.2136 15.1579 -0.623849 -7.94913 30.3175 -13.1819 8.43185 -7.91393 -15.7302 -3.52816 
232.716 88.7575 252.7 -70.4899 34.4508 -113.757 -167.204 57.9367 74.296 -46.6269 10.5451 -8.17934 77.0725 7.27651 -1.1611 25.0504 3.03668 -4.40589 173.631 -10.7795 87.6849 -39.2132 -21.1501 -4.47088 64.1178 -1.79916 3.3292 15.6898 -2.83829 7.0503 2.69532 8.04048 -88.5211 10.7339 6.04901 2.38576 -0.924548 6.14811 2.11638 -23.5276 5.05233 4.09619 -3.51496 5.05232 4.09618 93.7287 -14.3187 -104.984 34.3739 -36.6969 -8.73285 38.4003 45.2052 -8.46428 -30.8969 16.1303 -54.3044 -84.809 -29.0807 82.929 -21.3801 46.4055 23.85 73.853 -25.0767 -80.2497 12.0174 -0.61494 -8.26719 28.7264 -15.5254 4.95487 -6.60623 -16.5438 -3.90579 
220.196 88.3082 239.725 -77.7053 30.43 -108.937 -170.408 44.7998 77.2726 -48.4869 6.79519 -8.12288 67.7134 3.3502 3.32243 32.2119 5.32605 -9.93755 170.634 -1.87455 89.0009 -68.8326 -10.0677 0.283263 66.7179 -3.58564 -1.49681 15.1104 -4.71651 10.734 1.67932 8.34633 -88.5996 10.1351 3.98464 2.44537 -1.53169 4.08838 2.26748 -24.0804 3.06588 3.52984 -4.06776 3.06589 3.52984 91.3493 -24.8482 -105.997 41.4764 -18.6011 -1.53975 19.7276 17.9061 0.0109882 -31.9952 12.8002 -45.1012 -86.2523 -43.4184 83.2814 -11.4185 39.2777 -5.09294 76.1346 -14.4871 -80.3386 -2.09773 -0.107366 -11.3864 27.1542 -14.9631 -4.74522 -5.38205 -12.6322 1.80506 
209.088 86.0371 228.023 -77.921 29.8187 -111.181 -167.165 36.834 77.7564 -59.2969 6.2989 -7.33409 84.1724 10.1033 -2.48606 33.8849 3.35413 -6.77328 174.525 21.0826 85.0722 -100.115 2.78211 -0.90337 79.7667 -10.1922 -1.36832 14.3808 -3.77728 8.85407 0.566167 8.11904 -88.2993 10.6007 1.90938 3.20201 -1.0728 2.04836 3.11498 -23.5779 0.85961 3.62726 -3.56528 0.859632 3.62725 91.3183 -28.6305 -104.565 48.9749 -8.92869 13.1066 2.54521 -8.0489 -4.50787 -21.8008 4.78067 -31.2871 -87.2697 -47.3163 82.3183 7.19987 40.187 -45.7014 78.1018 -11.1363 -78.9366 -37.2543 2.284 -12.6403 25.3275 -11.1587 -7.10307 -5.96973 -8.19 0.402022 
196.165 85.051 215.439 -82.1323 27.9245 -105.442 -171.668 21.6201 90.5765 -57.4095 7.58447 -3.94429 93.2569 13.0907 -4.91616 43.4354 1.7418 -5.80504 -175.975 40.3598 81.0229 -109.371 -4.05603 -1.04864 84.7872 -13.2932 -3.94839 12.2773 -3.55941 8.28337 -1.20694 8.25438 -88.8516 10.3786 -1.87805 2.44845 -1.29373 -1.76853 2.52866 -23.827 -2.52699 1.77108 -3.81431 -2.52702 1.77106 93.204 -24.2505 -102.232 56.0303 -7.43618 35.4837 -21.2984 -15.6595 -40.6337 -20.6145 2.88305 -25.8728 -86.4027 -34.3995 81.3385 -1.11975 13.1784 -62.4354 87.0559 -14.653 -85.9223 -2.38578 0.786575 -8.51002 24.6197 -4.40994 -7.76981 -5.04025 -1.52911 1.72712 
181.856 87.2425 200.739 -80.7579 33.6824 -99.531 -169.075 -3.52866 93.8515 -35.1644 11.5314 -2.52674 79.9036 9.18063 1.64048 60.8533 -0.185569 -5.34946 -168.748 54.6785 80.4727 -93.4435 3.09309 -2.52441 88.5114 -14.4126 -3.2192 11.4105 -2.04219 5.55178 -2.20617 7.87716 -89.7831 11.1396 -4.28971 0.860783 -0.524691 -4.24765 1.04906 -23.1167 -4.34981 -0.470772 -3.10401 -4.34977 -0.470757 93.2485 -19.9545 -103.689 55.1206 -11.4972 52.6569 -17.488 -10.9581 -54.4592 -29.1895 4.31179 -25.1236 -83.5377 -18.43 83.2781 -14.5099 -1.99993 -61.3771 73.7523 -17.2182 -92.6005 8.69008 0.239772 -0.0162876 28.5038 3.75067 -9.13026 -12.8556 6.53674 6.47615 
